<?xml version="1.0" standalone="no"?>
<!DOCTYPE svg PUBLIC "-//W3C//DTD SVG 20010904//EN"
 "http://www.w3.org/TR/2001/REC-SVG-20010904/DTD/svg10.dtd">
<svg version="1.0" xmlns="http://www.w3.org/2000/svg"
 width="500.000000pt" height="500.000000pt" viewBox="0 0 500.000000 500.000000"
 preserveAspectRatio="xMidYMid meet">
<metadata>
Created by potrace 1.14, written by Peter Selinger 2001-2017
</metadata>
<g transform="translate(0.000000,500.000000) scale(0.100000,-0.100000)"
fill="#000000" stroke="none">
<path d="M0 2500 l0 -2500 2500 0 2500 0 0 2500 0 2500 -2500 0 -2500 0 0
-2500z m3315 2005 c91 -8 247 -47 344 -87 175 -73 307 -163 446 -302 195 -197
323 -441 372 -710 24 -130 23 -374 -1 -491 -56 -271 -180 -501 -375 -695 -324
-323 -768 -458 -1216 -369 -284 57 -540 205 -736 425 -312 350 -420 854 -278
1302 163 515 635 893 1164 932 98 7 140 6 280 -5z m-1391 -2272 c321 -308 336
-324 336 -383 0 -71 -53 -120 -130 -120 -39 0 -48 7 -230 182 -223 214 -235
229 -235 285 0 72 53 123 129 123 35 0 47 -8 130 -87z m-191 -416 c68 -29 127
-121 127 -200 0 -81 -20 -104 -522 -593 -264 -258 -496 -480 -516 -493 -43
-29 -131 -40 -184 -22 -47 15 -103 73 -124 127 -21 54 -14 130 15 178 33 53
987 979 1029 998 44 21 131 23 175 5z"/>
<path d="M2936 4275 c-348 -72 -641 -300 -796 -619 -170 -349 -141 -778 75
-1104 164 -250 435 -431 728 -487 117 -22 316 -20 440 6 334 68 623 293 777
604 124 251 149 517 75 793 -101 377 -404 681 -786 788 -82 23 -117 27 -269
30 -124 2 -195 -1 -244 -11z m356 -185 c129 -22 317 -82 336 -107 30 -41 2
-103 -47 -103 -14 0 -67 14 -116 31 -138 47 -309 73 -430 65 -121 -7 -186 -24
-285 -72 -181 -89 -344 -330 -396 -584 -21 -108 -15 -266 15 -360 11 -36 21
-74 21 -86 0 -32 -33 -56 -72 -52 -28 3 -36 10 -55 48 -61 126 -70 393 -19
564 63 208 202 423 341 526 90 67 218 120 332 140 90 15 257 11 375 -10z"/>
</g>
</svg>
